<?xml version="1.0" encoding="UTF-8"?>
<svg width="64px" height="64px" viewBox="0 0 64 64" version="1.1" xmlns="http://www.w3.org/2000/svg" xmlns:xlink="http://www.w3.org/1999/xlink">
    <!-- Generator: Sketch 47.1 (45422) - http://www.bohemiancoding.com/sketch -->
    <title>Artboard</title>
    <desc>Created with Sketch.</desc>
    <defs></defs>
    <g id="Page-1" stroke="none" stroke-width="1" fill="none" fill-rule="evenodd">
        <g id="Artboard" fill-rule="nonzero" fill="#D0011B">
            <path d="M25.4595532,34.7012112 C25.4595532,33.6816182 25.4595532,31.9664196 25.4595532,29.5556154 C25.4595532,27.0494059 23.5562597,25 21.2255882,25 C18.8960676,25 16.9904727,27.0494059 16.9904727,29.5556154 L16.9904727,34.7656729 C16.9904727,37.2728025 14.9398869,39.3235884 12.4310837,39.3235884 L7.55800809,39.3235884 C5.05173654,39.3235884 3,41.2257867 3,43.555117 C3,45.8819173 5.05173654,47.7864157 7.55800809,47.7864157 L12.4310837,47.7864157 C14.9398869,47.7864157 16.9904727,49.8372017 16.9904727,52.3445612 L16.9904727,57.4448447 C16.9904727,59.9505941 18.8960676,62 21.2255882,62 C23.5562597,62 25.4595532,59.9505941 25.4595532,57.4448447 L25.4595532,52.3445612 C25.4595532,49.8372017 27.5115198,47.7864157 30.0200928,47.7864157 L34.4419919,47.7864157 C36.9482635,47.7864157 39,45.8819173 39,43.555117 C39,41.2257867 36.9942641,39.3235884 34.4419919,39.3235884 C31.8897196,39.3235884 31.8259992,39.3235884 30.0200928,39.3235884 C27.2576132,39.3235884 25.4595532,37.3503217 25.4595532,34.7012112 Z" id="Fill-1"></path>
            <path d="M25.4595532,11.7012112 C25.4595532,10.6816182 25.4595532,8.96641959 25.4595532,6.55561537 C25.4595532,4.04940588 23.5562597,2 21.2255882,2 C18.8960676,2 16.9904727,4.04940588 16.9904727,6.55561537 L16.9904727,11.7656729 C16.9904727,14.2728025 14.9398869,16.3235884 12.4310837,16.3235884 L7.55800809,16.3235884 C5.05173654,16.3235884 3,18.2257867 3,20.555117 C3,22.8819173 5.05173654,24.7864157 7.55800809,24.7864157 L12.4310837,24.7864157 C14.9398869,24.7864157 16.9904727,26.8372017 16.9904727,29.3445612 L16.9904727,34.4448447 C16.9904727,36.9505941 18.8960676,39 21.2255882,39 C23.5562597,39 25.4595532,36.9505941 25.4595532,34.4448447 L25.4595532,29.3445612 C25.4595532,26.8372017 27.5115198,24.7864157 30.0200928,24.7864157 L34.4419919,24.7864157 C36.9482635,24.7864157 39,22.8819173 39,20.555117 C39,18.2257867 36.9942641,16.3235884 34.4419919,16.3235884 C31.8897196,16.3235884 31.8259992,16.3235884 30.0200928,16.3235884 C27.2576132,16.3235884 25.4595532,14.3503217 25.4595532,11.7012112 Z" id="Fill-1-Copy-2"></path>
            <path d="M48.4595532,11.7012112 C48.4595532,10.6816182 48.4595532,8.96641959 48.4595532,6.55561537 C48.4595532,4.04940588 46.5562597,2 44.2255882,2 C41.8960676,2 39.9904727,4.04940588 39.9904727,6.55561537 L39.9904727,11.7656729 C39.9904727,14.2728025 37.9398869,16.3235884 35.4310837,16.3235884 L30.5580081,16.3235884 C28.0517365,16.3235884 26,18.2257867 26,20.555117 C26,22.8819173 28.0517365,24.7864157 30.5580081,24.7864157 L35.4310837,24.7864157 C37.9398869,24.7864157 39.9904727,26.8372017 39.9904727,29.3445612 L39.9904727,34.4448447 C39.9904727,36.9505941 41.8960676,39 44.2255882,39 C46.5562597,39 48.4595532,36.9505941 48.4595532,34.4448447 L48.4595532,29.3445612 C48.4595532,26.8372017 50.5115198,24.7864157 53.0200928,24.7864157 L57.4419919,24.7864157 C59.9482635,24.7864157 62,22.8819173 62,20.555117 C62,18.2257867 59.9942641,16.3235884 57.4419919,16.3235884 C54.8897196,16.3235884 54.8259992,16.3235884 53.0200928,16.3235884 C50.2576132,16.3235884 48.4595532,14.3503217 48.4595532,11.7012112 Z" id="Fill-1-Copy-3"></path>
            <path d="M48.4595532,34.7012112 C48.4595532,33.6816182 48.4595532,31.9664196 48.4595532,29.5556154 C48.4595532,27.0494059 46.5562597,25 44.2255882,25 C41.8960676,25 39.9904727,27.0494059 39.9904727,29.5556154 L39.9904727,34.7656729 C39.9904727,37.2728025 37.9398869,39.3235884 35.4310837,39.3235884 L30.5580081,39.3235884 C28.0517365,39.3235884 26,41.2257867 26,43.555117 C26,45.8819173 28.0517365,47.7864157 30.5580081,47.7864157 L35.4310837,47.7864157 C37.9398869,47.7864157 39.9904727,49.8372017 39.9904727,52.3445612 L39.9904727,57.4448447 C39.9904727,59.9505941 41.8960676,62 44.2255882,62 C46.5562597,62 48.4595532,59.9505941 48.4595532,57.4448447 L48.4595532,52.3445612 C48.4595532,49.8372017 50.5115198,47.7864157 53.0200928,47.7864157 L57.4419919,47.7864157 C59.9482635,47.7864157 62,45.8819173 62,43.555117 C62,41.2257867 59.9942641,39.3235884 57.4419919,39.3235884 C54.8897196,39.3235884 54.8259992,39.3235884 53.0200928,39.3235884 C50.2576132,39.3235884 48.4595532,37.3503217 48.4595532,34.7012112 Z" id="Fill-1-Copy"></path>
        </g>
    </g>
</svg>