<?xml version="1.0" encoding="utf-8"?>
<!-- Generator: Adobe Illustrator 15.0.0, SVG Export Plug-In . SVG Version: 6.00 Build 0)  -->
<!DOCTYPE svg PUBLIC "-//W3C//DTD SVG 1.1//EN" "http://www.w3.org/Graphics/SVG/1.1/DTD/svg11.dtd">
<svg version="1.1" id="レイヤー_1" xmlns="http://www.w3.org/2000/svg" xmlns:xlink="http://www.w3.org/1999/xlink" x="0px"
	 y="0px" width="259.536px" height="257.545px" viewBox="0 0 259.536 257.545" enable-background="new 0 0 259.536 257.545"
	 xml:space="preserve">
<path fill="#231815" d="M235.767,100.787c10.89,0,19.806-8.281,19.806-18.397c0-10.116-8.916-18.402-19.806-18.402h-23.383
	c-10.879,0-19.806-8.911-19.806-19.811V21.806C192.578,10.91,184.298,2,174.177,2c-10.111,0-18.393,8.91-18.393,19.806v22.372
	c0,10.9-8.915,19.811-19.815,19.811h-15.563c-10.9,0-19.816-8.911-19.816-19.811V21.806C100.589,10.91,92.319,2,82.192,2
	C72.07,2,63.79,10.91,63.79,21.806v22.372c0,10.9-8.91,19.811-19.811,19.811H22.806C11.915,63.988,3,72.274,3,82.39
	c0,10.116,8.915,18.397,19.806,18.397h21.174c10.9,0,19.811,8.916,19.811,19.816v15.564c0,10.9-8.91,19.816-19.811,19.816H22.806
	C11.915,155.983,3,164.253,3,174.38c0,10.116,8.915,18.396,19.806,18.396h21.174c10.9,0,19.811,8.916,19.811,19.816v22.174
	c0,10.895,8.28,19.806,18.402,19.806c10.127,0,18.396-8.911,18.396-19.806v-22.174c0-10.9,8.916-19.816,19.816-19.816h15.563
	c10.9,0,19.815,8.916,19.815,19.816v22.174c0,10.895,8.281,19.806,18.393,19.806c10.121,0,18.401-8.911,18.401-19.806v-22.174
	c0-10.9,8.927-19.816,19.806-19.816h23.383c10.89,0,19.806-8.28,19.806-18.396c0-10.127-8.916-18.396-19.806-18.396h-23.383
	c-10.879,0-19.806-8.916-19.806-19.816v-15.564c0-10.9,8.927-19.816,19.806-19.816H235.767z M155.784,136.167
	c0,10.9-8.915,19.816-19.815,19.816h-15.563c-10.9,0-19.816-8.916-19.816-19.816v-15.564c0-10.9,8.916-19.816,19.816-19.816h15.563
	c10.9,0,19.815,8.916,19.815,19.816V136.167z"/>
</svg>
