<?xml version="1.0" encoding="UTF-8" standalone="no"?>
<svg width="100px" height="100px" viewBox="0 0 100 100" version="1.1" xmlns="http://www.w3.org/2000/svg" xmlns:xlink="http://www.w3.org/1999/xlink">
    <!-- Generator: Sketch 41 (35326) - http://www.bohemiancoding.com/sketch -->
    <title>Artboard 2</title>
    <desc>Created with Sketch.</desc>
    <defs>
        <polygon id="path-1" points="0 0.0982338343 57.7921147 0.0982338343 57.7921147 57.9327741 0 57.9327741"></polygon>
    </defs>
    <g id="Page-1" stroke="none" stroke-width="1" fill="none" fill-rule="evenodd">
        <g id="Artboard-2">
            <g id="Imported-Layers" transform="translate(21.000000, 21.000000)">
                <mask id="mask-2" fill="white">
                    <use xlink:href="#path-1"></use>
                </mask>
                <g id="Clip-2"></g>
                <path d="M34.9593659,30.8201671 C34.9593659,33.3160851 32.9194773,35.3577001 30.4253903,35.3577001 L26.8641086,35.3577001 C24.3700216,35.3577001 22.3299042,33.3160851 22.3299042,30.8201671 L22.3299042,27.2562711 C22.3299042,24.7603532 24.3700216,22.7187381 26.8641086,22.7187381 L30.4253903,22.7187381 C32.9194773,22.7187381 34.9593659,24.7603532 34.9593659,27.2562711 L34.9593659,30.8201671 Z M53.260473,22.7187381 C55.7522719,22.7187381 57.7921605,20.8225274 57.7921605,18.5061324 C57.7921605,16.1897373 55.7522719,14.2923817 53.260473,14.2923817 L47.9103131,14.2923817 C45.4210313,14.2923817 43.3783969,12.2521406 43.3783969,9.75599365 L43.3783969,4.63340832 C43.3783969,2.13840631 41.483806,0.0981651394 39.1679661,0.0981651394 C36.8541856,0.0981651394 34.9593659,2.13840631 34.9593659,4.63340832 L34.9593659,9.75599365 C34.9593659,12.2521406 32.9194773,14.2923817 30.4253903,14.2923817 L26.8641086,14.2923817 C24.3700216,14.2923817 22.3299042,12.2521406 22.3299042,9.75599365 L22.3299042,4.63340832 C22.3299042,2.13840631 20.4376015,0.0981651394 18.1203887,0.0981651394 C15.8043201,0.0981651394 13.9097292,2.13840631 13.9097292,4.63340832 L13.9097292,9.75599365 C13.9097292,12.2521406 11.8709847,14.2923817 9.37666884,14.2923817 L4.53173322,14.2923817 C2.03993436,14.2923817 4.57630644e-05,16.1897373 4.57630644e-05,18.5061324 C4.57630644e-05,20.8225274 2.03993436,22.7187381 4.53173322,22.7187381 L9.37666884,22.7187381 C11.8709847,22.7187381 13.9097292,24.7603532 13.9097292,27.2562711 L13.9097292,30.8201671 C13.9097292,33.3160851 11.8709847,35.3577001 9.37666884,35.3577001 L4.53173322,35.3577001 C2.03993436,35.3577001 4.57630644e-05,37.251392 4.57630644e-05,39.5703058 C4.57630644e-05,41.8867009 2.03993436,43.7826826 4.53173322,43.7826826 L9.37666884,43.7826826 C11.8709847,43.7826826 13.9097292,45.8242977 13.9097292,48.3204446 L13.9097292,53.3979202 C13.9097292,55.8924642 15.8043201,57.9327054 18.1203887,57.9327054 C20.4376015,57.9327054 22.3299042,55.8924642 22.3299042,53.3979202 L22.3299042,48.3204446 C22.3299042,45.8242977 24.3700216,43.7826826 26.8641086,43.7826826 L30.4253903,43.7826826 C32.9194773,43.7826826 34.9593659,45.8242977 34.9593659,48.3204446 L34.9593659,53.3979202 C34.9593659,55.8924642 36.8541856,57.9327054 39.1679661,57.9327054 C41.483806,57.9327054 43.3783969,55.8924642 43.3783969,53.3979202 L43.3783969,48.3204446 C43.3783969,45.8242977 45.4210313,43.7826826 47.9103131,43.7826826 L53.260473,43.7826826 C55.7522719,43.7826826 57.7921605,41.8867009 57.7921605,39.5703058 C57.7921605,37.251392 55.7522719,35.3577001 53.260473,35.3577001 L47.9103131,35.3577001 C45.4210313,35.3577001 43.3783969,33.3160851 43.3783969,30.8201671 L43.3783969,27.2562711 C43.3783969,24.7603532 45.4210313,22.7187381 47.9103131,22.7187381 L53.260473,22.7187381 Z" id="Fill-1" fill="#D0011B" mask="url(#mask-2)"></path>
            </g>
            <path d="M50,96 C75.4050985,96 96,75.4050985 96,50 C96,24.5949015 75.4050985,4 50,4 C24.5949015,4 4,24.5949015 4,50 C4,75.4050985 24.5949015,96 50,96 Z M50,86.6966292 C29.7330113,86.6966292 13.3033708,70.2669887 13.3033708,50 C13.3033708,29.7330113 29.7330113,13.3033708 50,13.3033708 C70.2669887,13.3033708 86.6966292,29.7330113 86.6966292,50 C86.6966292,70.2669887 70.2669887,86.6966292 50,86.6966292 Z" id="Oval" fill="#D0011B"></path>
        </g>
    </g>
</svg>